# xmcd
#
# Track frame offsets: 
#        150
#        19660
#        35036
#        46459
#        67559
#        84269
#        109419
#        130007
#        143794
#        157468
#        180138
#        195792
#        211046
#        225867
#        242406
#        261350
#        277560
#        292669
#
# Disc length: 4091 seconds
#
# Revision: 3
# Processed by: cddbd v1.5.2PL0 Copyright (c) Steve Scherf et al.
# Submitted via: ExactAudioCopy v1.1
#
DISCID=db0ff912
DTITLE=???? - ???? ????????? ???????????????????????? Disc 1
DYEAR=2009
DGENRE=J-POP
TTITLE0=??
TTITLE1=?
TTITLE2=????????
TTITLE3=??????
TTITLE4=?????
TTITLE5=Mr. CLOUDY SKY
TTITLE6=???
TTITLE7=??????????????????????????
TTITLE8=?????
TTITLE9=Jungle Gym
TTITLE10=?
TTITLE11=???
TTITLE12=????????????
TTITLE13=???
TTITLE14=???
TTITLE15=??
TTITLE16=??
TTITLE17=??
EXTD=YEAR: 2009
EXTT0=
EXTT1=
EXTT2=
EXTT3=
EXTT4=
EXTT5=
EXTT6=
EXTT7=
EXTT8=
EXTT9=
EXTT10=
EXTT11=
EXTT12=
EXTT13=
EXTT14=
EXTT15=
EXTT16=
EXTT17=
PLAYORDER=
